<svg xmlns="http://www.w3.org/2000/svg" version="1.1" xmlns:xlink="http://www.w3.org/1999/xlink" xmlns:svgjs="http://svgjs.dev/svgjs" width="1000" height="1000" viewBox="0 0 1000 1000"><g transform="matrix(1,0,0,1,0,0)"><svg viewBox="0 0 280 280" data-background-color="#ffffff" preserveAspectRatio="xMidYMid meet" height="1000" width="1000" xmlns="http://www.w3.org/2000/svg" xmlns:xlink="http://www.w3.org/1999/xlink"><defs></defs><g id="tight-bounds" transform="matrix(1,0,0,1,0,0)"><svg viewBox="0 0 280 280" height="280" width="280"><g><svg viewBox="0 0 280 280" height="280" width="280"><g><svg viewBox="0 0 280 280" height="280" width="280"><g><svg viewBox="0 0 280 280" height="280" width="280"><g><svg viewBox="0 0 280 280" height="280" width="280"><g transform="matrix(1,0,0,1,73.92976557588237,93.65829320664069)"><svg viewBox="0 0 132.14046884823526 92.68341358671861" height="92.68341358671861" width="132.14046884823526"><g><svg xmlns="http://www.w3.org/2000/svg" xmlns:xlink="http://www.w3.org/1999/xlink" version="1.1" x="0" y="0" viewBox="9.334999084472656 21.47700309753418 81.33011627197266 57.04499816894531" enable-background="new 0 0 100 100" xml:space="preserve" height="92.68341358671861" width="132.14046884823526" class="icon-o-0" data-fill-palette-color="accent" id="o-0"><g fill="#fff" data-fill-palette-color="accent"><path d="M55.396 73.396c-0.314 0-0.63-0.099-0.898-0.299C39.59 61.957 23.822 61.393 20.812 61.393c-0.388 0-0.603 0.009-0.622 0.009-0.652 0.023-1.245-0.364-1.473-0.973-4.655-12.454-0.164-23.046 0.03-23.491 0.235-0.541 0.765-0.893 1.354-0.902 19.028-0.273 29.388-7.828 34.367-11.458 0.596-0.437 1.425-0.371 1.947 0.154 0.522 0.525 0.583 1.352 0.144 1.948-3.058 4.146-5.032 12.834-5.032 22.134 0 9.35 1.99 18.058 5.07 22.185 0.445 0.598 0.386 1.432-0.142 1.958C56.165 73.248 55.781 73.396 55.396 73.396zM21.181 58.395c3.51 0.045 16.671 0.796 30.226 9.006-1.824-4.938-2.879-11.539-2.879-18.586 0-6.983 1.039-13.538 2.835-18.464-6.051 3.786-15.649 8.259-30.187 8.665C20.308 41.585 18.196 49.462 21.181 58.395z" fill="#fff" data-fill-palette-color="accent"></path><path d="M59.769 76.209c-5.469 0-11.281-9.591-11.281-27.366 0-17.775 5.812-27.366 11.281-27.366S71.05 31.068 71.05 48.843C71.05 66.618 65.237 76.209 59.769 76.209zM59.769 24.477c-3.917 0-8.28 10.007-8.28 24.366 0 14.359 4.363 24.366 8.28 24.366s8.281-10.007 8.281-24.366C68.05 34.484 63.686 24.477 59.769 24.477z" fill="#fff" data-fill-palette-color="accent"></path><path d="M20.097 61.403l-2.992-0.054c-4.345 0-7.77-5.563-7.77-12.665 0-7.102 3.425-12.665 7.797-12.665h3.373v3h-3.373c-2.269 0-4.797 3.969-4.797 9.665 0 5.695 2.528 9.665 4.797 9.665l3.019 0.054L20.097 61.403z" fill="#fff" data-fill-palette-color="accent"></path><path d="M61.128 39.02c-0.584 0-1.14-0.343-1.382-0.915-0.323-0.762 0.032-1.643 0.795-1.967l23.98-10.181c0.764-0.324 1.644 0.032 1.967 0.795 0.323 0.762-0.032 1.643-0.795 1.967L61.713 38.9C61.521 38.981 61.323 39.02 61.128 39.02z" fill="#fff" data-fill-palette-color="accent"></path><path d="M85.106 71.984c-0.195 0-0.394-0.038-0.585-0.119l-23.98-10.181c-0.763-0.324-1.118-1.204-0.795-1.967 0.324-0.762 1.204-1.117 1.967-0.795l23.98 10.181c0.763 0.324 1.118 1.204 0.795 1.967C86.246 71.642 85.69 71.984 85.106 71.984z" fill="#fff" data-fill-palette-color="accent"></path><path d="M89.165 50.571c-0.006 0-0.011 0-0.017 0L61.11 50.252c-0.829-0.009-1.493-0.688-1.483-1.517 0.01-0.828 0.683-1.454 1.517-1.483l28.038 0.318c0.829 0.009 1.493 0.688 1.483 1.517C90.655 49.91 89.986 50.571 89.165 50.571z" fill="#fff" data-fill-palette-color="accent"></path><path d="M27.985 78.522c-2.495 0-4.525-2.03-4.525-4.525V58.905l9.05 1.269v13.823C32.51 76.492 30.48 78.522 27.985 78.522zM26.46 62.354v11.643c0 0.841 0.684 1.525 1.525 1.525 0.841 0 1.525-0.685 1.525-1.525V62.783L26.46 62.354z" fill="#fff" data-fill-palette-color="accent"></path></g></svg></g></svg></g><path d="M22.06 99.018l-1.135-0.43 2.589-6.827c0.393-1.036 0.39-2.04-0.007-3.013-0.403-0.976-1.222-1.697-2.455-2.165v0c-0.912-0.346-1.877-0.279-2.896 0.2-1.012 0.481-1.701 1.203-2.065 2.164v0l-3.685 9.72 20.379 7.726-0.43 1.135-21.514-8.157 4.116-10.855c0.484-1.277 1.385-2.223 2.703-2.836 1.32-0.62 2.594-0.697 3.822-0.232v0c1.507 0.571 2.536 1.504 3.088 2.798 0.56 1.29 0.587 2.605 0.079 3.945v0zM24.32 99.875l-1.135-0.43 2.589-6.827c0.621-1.637 0.58-3.259-0.123-4.866-0.703-1.607-1.95-2.75-3.742-3.43v0c-1.544-0.585-3.126-0.501-4.746 0.254-1.628 0.759-2.742 1.929-3.341 3.51v0l-4.546 11.99 22.649 8.587-0.427 1.125-23.784-9.017 4.973-13.115c0.473-1.246 1.239-2.296 2.3-3.149 1.052-0.849 2.239-1.396 3.559-1.64 1.32-0.244 2.584-0.137 3.793 0.321v0c2.065 0.783 3.526 2.138 4.384 4.066 0.86 1.922 0.922 3.853 0.186 5.794v0zM26.58 100.732l-1.125-0.426 2.589-6.828c0.557-1.47 0.711-2.968 0.459-4.495-0.248-1.534-0.874-2.924-1.876-4.17-1.009-1.248-2.295-2.168-3.858-2.76v0c-1.414-0.536-2.886-0.665-4.417-0.388-1.525 0.28-2.9 0.915-4.126 1.904-1.224 0.983-2.112 2.203-2.664 3.66v0l-5.403 14.25 24.909 9.444-0.431 1.135-26.043-9.875 5.833-15.384c0.623-1.643 1.631-3.03 3.025-4.162 1.391-1.125 2.959-1.846 4.703-2.163 1.744-0.317 3.426-0.169 5.044 0.444v0c1.866 0.708 3.354 1.733 4.462 3.075 1.111 1.336 1.805 2.844 2.083 4.524v0l9.696 0.325-0.455 1.2-9.116-0.255c0.01 0.479 0.004 0.842-0.02 1.089v0l8.709 0.291-0.455 1.2-8.411-0.263c-0.013 0.109-0.104 0.461-0.272 1.056v0l8.253 0.342-0.451 1.19-8.215-0.359-0.388 1.023 8.172 0.471-0.451 1.191-8.18-0.453zM15.523 97.263l18.119 6.87-0.427 1.126-19.253-7.3 3.255-8.586c0.266-0.701 0.734-1.215 1.404-1.542 0.67-0.327 1.337-0.365 2-0.114v0c1.823 0.691 2.409 1.896 1.758 3.614v0l-2.589 6.827-1.134-0.43 2.588-6.828c0.172-0.453 0.188-0.851 0.049-1.194-0.139-0.344-0.506-0.628-1.102-0.854v0c-0.366-0.139-0.725-0.119-1.076 0.06-0.354 0.185-0.608 0.482-0.763 0.892v0zM36.989 45.255l19.982 19.403-0.846 0.871-19.981-19.404zM35.298 46.996l19.982 19.404-0.839 0.863-19.981-19.404zM33.614 48.73l19.982 19.404-0.845 0.87-19.982-19.403zM50.833 55.329l3.476 3.375 8.981-9.249 0.871 0.846-8.982 9.248 0.871 0.846 8.981-9.249 0.871 0.846-8.981 9.248 0.863 0.839 8.981-9.249 0.871 0.846-9.82 10.112-19.982-19.404 9.82-10.112 0.871 0.845-8.981 9.249 0.863 0.839 8.981-9.249 0.871 0.845-8.981 9.249 0.87 0.845 8.982-9.248 0.87 0.845-8.981 9.249 3.475 3.375 4.609-4.746 0.863 0.839-4.608 4.745 0.871 0.846 4.608-4.746 0.871 0.845-4.609 4.746 0.871 0.846 4.608-4.746 0.864 0.838zM99.42 27.597l-4.767 1.848 0.019-1.298 3.859-1.496zM101.207 29.507l-6.557 2.543 0.006-1.304 5.63-2.183zM102.962 31.419l-8.31 3.223-0.003-1.301 7.401-2.87zM86.859 13.114l-0.175 28.191-1.224 0.475 0.197-29.95 1.224-0.475 20.328 21.992-1.206 0.467zM87.89 40.838l0.147-25.098 1.21 1.195-0.152 23.435zM90.32 39.896l0.133-21.668 1.198 1.328-0.107 19.865zM92.749 38.953l0.096-18.078 1.208 1.356-0.098 16.255zM94.162 8.532l20.336 21.988-1.224 0.475-20.318-21.995zM90.517 9.946l1.215-0.472 20.336 21.988-1.205 0.468zM88.087 10.888l1.215-0.471 20.336 21.987-1.224 0.475zM143.933 27.859l-0.163-27.852 1.204-0.007 0.162 27.852zM141.506 27.874l-0.163-27.853 1.213-0.007 0.163 27.852zM139.088 27.888l-0.162-27.853 1.203-0.007 0.163 27.853zM136.661 27.902l-0.162-27.853 1.213-0.007 0.163 27.853zM181.295 22.848l0.423-1.137 6.843 2.546c1.038 0.386 2.042 0.378 3.013-0.025 0.973-0.409 1.69-1.232 2.15-2.469v0c0.34-0.914 0.267-1.878-0.218-2.894-0.488-1.009-1.213-1.693-2.176-2.052v0l-9.743-3.625-7.6 20.427-1.138-0.423 8.024-21.564 10.88 4.048c1.28 0.476 2.232 1.372 2.853 2.686 0.628 1.316 0.713 2.59 0.256 3.82v0c-0.562 1.51-1.488 2.545-2.78 3.105-1.287 0.568-2.602 0.603-3.944 0.104v0zM180.452 25.114l0.423-1.138 6.843 2.547c1.641 0.611 3.263 0.559 4.865-0.154 1.603-0.713 2.738-1.967 3.407-3.763v0c0.576-1.548 0.481-3.129-0.284-4.744-0.769-1.623-1.945-2.73-3.53-3.319v0l-12.017-4.472-8.447 22.701-1.128-0.419 8.87-23.839 13.145 4.891c1.249 0.465 2.304 1.225 3.164 2.281 0.856 1.047 1.41 2.23 1.662 3.548 0.253 1.318 0.153 2.583-0.298 3.795v0c-0.77 2.07-2.117 3.539-4.039 4.409-1.916 0.872-3.847 0.946-5.793 0.222v0zM179.609 27.379l0.42-1.128 6.843 2.546c1.473 0.548 2.973 0.692 4.499 0.433 1.532-0.258 2.918-0.892 4.157-1.903 1.242-1.017 2.154-2.308 2.737-3.875v0c0.527-1.417 0.647-2.89 0.36-4.419-0.29-1.523-0.933-2.894-1.929-4.114-0.99-1.218-2.216-2.098-3.677-2.642v0l-14.283-5.314-9.29 24.967-1.137-0.424 9.713-26.104 15.42 5.738c1.647 0.613 3.041 1.613 4.181 2.999 1.134 1.384 1.865 2.947 2.192 4.69 0.328 1.742 0.19 3.425-0.413 5.047v0c-0.696 1.871-1.712 3.364-3.047 4.48-1.329 1.119-2.833 1.822-4.511 2.111v0l-0.265 9.698-1.203-0.448 0.198-9.117c-0.479 0.013-0.842 0.009-1.088-0.013v0l-0.238 8.711-1.202-0.448 0.211-8.412c-0.109-0.012-0.461-0.101-1.058-0.266v0l-0.291 8.255-1.193-0.444 0.308-8.217-1.025-0.382-0.421 8.176-1.193-0.444 0.402-8.183zM183.01 16.301l-6.758 18.161-1.128-0.42 7.181-19.298 8.605 3.202c0.702 0.261 1.219 0.726 1.551 1.394 0.332 0.668 0.374 1.335 0.126 2v0c-0.68 1.827-1.881 2.421-3.602 1.78v0l-6.843-2.546 0.423-1.138 6.843 2.546c0.454 0.169 0.852 0.183 1.194 0.042 0.343-0.141 0.625-0.51 0.848-1.107v0c0.136-0.367 0.114-0.725-0.067-1.076-0.187-0.353-0.486-0.605-0.896-0.758v0zM235.151 37.447l-19.283 20.099-0.875-0.84 19.282-20.099zM233.399 35.767l-19.282 20.099-0.869-0.833 19.282-20.1zM231.655 34.093l-19.282 20.099-0.876-0.84 19.282-20.099zM225.16 51.352l-3.353 3.496 9.303 8.925-0.841 0.876-9.303-8.925-0.84 0.876 9.303 8.924-0.84 0.876-9.303-8.925-0.833 0.869 9.303 8.925-0.84 0.875-10.172-9.758 19.282-20.099 10.172 9.758-0.84 0.876-9.303-8.925-0.834 0.869 9.303 8.925-0.84 0.875-9.303-8.925-0.84 0.876 9.303 8.925-0.84 0.876-9.303-8.925-3.354 3.496 4.774 4.579-0.833 0.869-4.774-4.58-0.84 0.876 4.773 4.58-0.84 0.875-4.773-4.579-0.84 0.876 4.773 4.579-0.833 0.869zM251.979 98.58l-3.132-7.639 12.333-5.057c0 0 1.044 2.546 3.132 7.639v0c0.506 1.233 0.337 2.543-0.507 3.928-0.846 1.379-2.116 2.416-3.81 3.111v0c-1.7 0.697-3.332 0.85-4.897 0.459-1.574-0.394-2.613-1.208-3.119-2.441zM260.514 87.458l-10.088 4.136 2.676 6.526c0.377 0.92 1.196 1.509 2.456 1.767 1.251 0.254 2.573 0.095 3.965-0.476v0c1.399-0.574 2.455-1.39 3.167-2.449 0.71-1.065 0.876-2.058 0.499-2.978v0zM261.833 84.305l-14.56 5.97 3.593 8.762c0.634 1.546 1.892 2.586 3.773 3.119 1.885 0.524 3.828 0.376 5.828-0.444v0c1.319-0.541 2.433-1.295 3.34-2.262 0.912-0.976 1.515-2.03 1.811-3.162 0.29-1.129 0.225-2.203-0.192-3.221v0zM249.743 99.497l-4.053-9.884 16.806-6.892 4.053 9.885c0.498 1.215 0.587 2.497 0.266 3.847-0.312 1.354-0.989 2.606-2.029 3.757-1.037 1.142-2.319 2.026-3.847 2.652v0c-1.516 0.621-3.046 0.891-4.593 0.809-1.555-0.086-2.919-0.502-4.092-1.247-1.176-0.736-2.014-1.712-2.511-2.927zM263.158 81.138l-19.052 7.812 4.514 11.008c0.584 1.424 1.551 2.568 2.902 3.433 1.354 0.871 2.909 1.37 4.666 1.495 1.76 0.131 3.502-0.156 5.226-0.864v0c1.712-0.702 3.151-1.719 4.318-3.05 1.17-1.325 1.929-2.776 2.279-4.353 0.352-1.571 0.239-3.062-0.339-4.473v0zM247.497 100.418l-4.97-12.121 21.297-8.733 4.97 12.121c0.664 1.62 0.808 3.324 0.431 5.113-0.377 1.789-1.215 3.433-2.514 4.934-1.296 1.506-2.904 2.653-4.825 3.441-1.921 0.787-3.871 1.1-5.852 0.937-1.978-0.157-3.729-0.739-5.254-1.749-1.525-1.009-2.619-2.323-3.283-3.943zM264.477 77.984l-23.524 9.647 5.43 13.244c0.556 1.356 1.404 2.542 2.545 3.558 1.144 1.007 2.426 1.757 3.847 2.25 1.429 0.496 2.987 0.721 4.674 0.674 1.683-0.038 3.319-0.383 4.909-1.034 1.589-0.652 2.993-1.554 4.212-2.706 1.228-1.149 2.179-2.402 2.855-3.761 0.672-1.351 1.062-2.786 1.169-4.307 0.099-1.524-0.13-2.964-0.686-4.32v0zM245.261 101.335v0l-5.892-14.367 25.771-10.567 5.891 14.367c0.83 2.025 1.027 4.148 0.591 6.37-0.428 2.225-1.419 4.266-2.973 6.122-1.554 1.856-3.494 3.26-5.82 4.214v0c-1.743 0.715-3.539 1.089-5.388 1.123-1.841 0.038-3.549-0.222-5.125-0.78-1.574-0.552-2.986-1.392-4.237-2.52-1.257-1.126-2.197-2.447-2.818-3.962zM23.057 184.236l1.135-0.43 2.589 6.827c0.393 1.036 1.06 1.786 2.002 2.252 0.949 0.463 2.04 0.461 3.274-0.008v0c0.912-0.346 1.59-1.035 2.035-2.069 0.439-1.032 0.476-2.028 0.111-2.989v0l-3.685-9.72-20.38 7.727-0.43-1.135 21.514-8.157 4.116 10.855c0.484 1.277 0.437 2.583-0.143 3.916-0.577 1.339-1.48 2.242-2.708 2.707v0c-1.507 0.571-2.896 0.555-4.167-0.048-1.275-0.595-2.167-1.562-2.674-2.9v0zM20.797 185.093l1.135-0.43 2.588 6.827c0.621 1.637 1.727 2.824 3.319 3.561 1.592 0.737 3.283 0.766 5.075 0.087v0c1.544-0.585 2.672-1.698 3.384-3.337 0.716-1.647 0.774-3.262 0.174-4.842v0l-4.545-11.99-22.649 8.588-0.427-1.126 23.784-9.018 4.972 13.115c0.473 1.246 0.594 2.541 0.366 3.883-0.225 1.334-0.75 2.529-1.576 3.587-0.826 1.058-1.843 1.816-3.053 2.274v0c-2.065 0.783-4.058 0.737-5.978-0.137-1.918-0.869-3.245-2.273-3.98-4.214v0zM18.537 185.95l1.125-0.426 2.589 6.827c0.557 1.47 1.436 2.693 2.636 3.67 1.203 0.984 2.592 1.609 4.169 1.877 1.583 0.265 3.156 0.101 4.719-0.491v0c1.414-0.536 2.602-1.416 3.563-2.638 0.956-1.221 1.565-2.607 1.827-4.161 0.264-1.547 0.12-3.049-0.432-4.506v0l-5.403-14.25-24.909 9.444-0.43-1.134 26.043-9.875 5.833 15.384c0.623 1.643 0.788 3.35 0.495 5.121-0.296 1.765-0.991 3.344-2.086 4.738-1.096 1.394-2.453 2.398-4.071 3.012v0c-1.866 0.708-3.659 0.926-5.379 0.656-1.717-0.264-3.237-0.932-4.559-2.005v0l-7.474 6.185-0.455-1.2 6.994-5.854c-0.325-0.352-0.561-0.628-0.708-0.828v0l-6.712 5.556-0.455-1.2 6.471-5.379c-0.062-0.09-0.228-0.414-0.496-0.971v0l-6.406 5.216-0.451-1.191 6.388-5.177-0.388-1.023-6.43 5.065-0.452-1.19 6.424-5.085zM29.114 181.216l-18.119 6.87-0.426-1.125 19.253-7.3 3.256 8.585c0.266 0.701 0.256 1.396-0.029 2.085-0.285 0.69-0.759 1.16-1.422 1.412v0c-1.823 0.691-3.06 0.178-3.712-1.54v0l-2.588-6.827 1.134-0.43 2.589 6.827c0.172 0.453 0.423 0.761 0.756 0.926 0.332 0.165 0.796 0.134 1.391-0.091v0c0.366-0.139 0.621-0.392 0.765-0.758 0.142-0.373 0.136-0.764-0.019-1.174v0zM59.577 216.444l-19.982 19.403-0.845-0.87 19.982-19.404zM57.886 214.702l-19.982 19.404-0.838-0.863 19.982-19.404zM56.202 212.968l-19.982 19.404-0.845-0.871 19.982-19.403zM49.101 229.986l-3.476 3.375 8.981 9.249-0.87 0.845-8.981-9.248-0.871 0.845 8.981 9.249-0.87 0.845-8.982-9.249-0.863 0.839 8.981 9.249-0.871 0.845-9.819-10.112 19.982-19.404 9.819 10.112-0.87 0.846-8.982-9.249-0.863 0.839 8.981 9.248-0.871 0.846-8.981-9.249-0.87 0.846 8.981 9.248-0.871 0.846-8.981-9.249-3.475 3.375 4.608 4.746-0.863 0.838-4.609-4.746-0.87 0.846 4.608 4.746-0.871 0.845-4.608-4.746-0.871 0.846 4.609 4.745-0.864 0.839zM96.576 263.371l-4.767-1.849 0.89-0.946 3.858 1.496zM96.608 265.986l-6.557-2.543 0.884-0.959 5.629 2.183zM96.615 268.581l-8.31-3.222 0.875-0.962 7.401 2.869zM97.062 244.205l-19.134 20.704-1.225-0.475 20.337-21.987 1.224 0.475 0.188 29.946-1.206-0.468zM79.133 265.377l17.029-18.437 0.088 1.698-15.911 17.206zM81.563 266.319l14.706-15.913-0.011 1.788-13.471 14.6zM83.993 267.261l12.258-13.288-0.021 1.816-11.031 11.94zM105.545 245.745l0.197 29.95-1.224-0.475-0.179-29.943zM101.9 244.331l1.215 0.471 0.197 29.95-1.206-0.467zM99.47 243.389l1.215 0.471 0.197 29.95-1.224-0.475zM143.791 279.993l0.163-27.852 1.203 0.007-0.162 27.852zM141.364 279.979l0.163-27.853 1.213 0.008-0.162 27.852zM138.947 279.965l0.163-27.853 1.203 0.007-0.162 27.853zM136.52 279.951l0.162-27.853 1.214 0.007-0.163 27.853zM180.923 259.785l-0.423-1.137 6.843-2.547c1.038-0.386 1.793-1.049 2.264-1.988 0.469-0.946 0.473-2.037 0.013-3.274v0c-0.34-0.914-1.026-1.596-2.057-2.047-1.029-0.445-2.025-0.488-2.988-0.13v0l-9.743 3.625 7.601 20.426-1.138 0.424-8.023-21.564 10.88-4.049c1.28-0.476 2.585-0.421 3.915 0.167 1.336 0.586 2.233 1.494 2.69 2.725v0c0.562 1.51 0.537 2.899-0.073 4.166-0.602 1.271-1.575 2.157-2.918 2.657v0zM181.766 262.05l-0.423-1.137 6.843-2.546c1.641-0.611 2.835-1.709 3.582-3.296 0.747-1.587 0.786-3.278 0.117-5.075v0c-0.576-1.548-1.681-2.682-3.315-3.405-1.643-0.726-3.257-0.794-4.842-0.204v0l-12.017 4.471 8.447 22.702-1.128 0.42-8.87-23.839 13.145-4.892c1.249-0.465 2.544-0.579 3.885-0.341 1.332 0.233 2.525 0.766 3.577 1.598 1.053 0.832 1.805 1.855 2.256 3.067v0c0.77 2.07 0.712 4.062-0.175 5.977-0.88 1.913-2.293 3.231-4.239 3.954v0zM182.609 264.316l-0.42-1.128 6.843-2.546c1.473-0.548 2.702-1.419 3.687-2.614 0.991-1.197 1.625-2.582 1.903-4.157 0.275-1.581 0.121-3.155-0.462-4.722v0c-0.527-1.417-1.399-2.61-2.616-3.579-1.215-0.963-2.598-1.581-4.15-1.853-1.545-0.274-3.048-0.139-4.509 0.404v0l-14.282 5.315 9.29 24.967-1.138 0.423-9.713-26.104 15.42-5.738c1.647-0.613 3.355-0.767 5.124-0.463 1.763 0.306 3.338 1.012 4.725 2.116 1.387 1.104 2.383 2.467 2.986 4.089v0c0.696 1.871 0.904 3.665 0.624 5.383-0.274 1.715-0.952 3.231-2.034 4.546v0l6.138 7.512-1.202 0.448-5.811-7.03c-0.354 0.323-0.631 0.557-0.832 0.703v0l5.515 6.747-1.203 0.447-5.339-6.504c-0.09 0.062-0.415 0.225-0.975 0.49v0l5.176 6.437-1.193 0.444-5.138-6.42-1.025 0.382 5.026 6.462-1.194 0.444-5.044-6.455zM177.941 253.709l6.757 18.161-1.128 0.42-7.181-19.298 8.606-3.202c0.702-0.261 1.397-0.248 2.085 0.041 0.688 0.289 1.155 0.766 1.402 1.431v0c0.68 1.827 0.159 3.061-1.562 3.702v0l-6.843 2.546-0.423-1.137 6.843-2.546c0.454-0.169 0.764-0.419 0.931-0.75 0.167-0.331 0.139-0.795-0.083-1.392v0c-0.136-0.367-0.388-0.623-0.754-0.77-0.372-0.145-0.763-0.141-1.173 0.012v0zM213.353 223.465l19.282 20.099-0.875 0.84-19.282-20.099zM211.602 225.145l19.282 20.1-0.869 0.833-19.282-20.099zM209.857 226.819l19.283 20.099-0.876 0.84-19.282-20.099zM226.832 234.023l3.354 3.496 9.303-8.925 0.84 0.876-9.303 8.925 0.84 0.876 9.303-8.925 0.84 0.876-9.303 8.925 0.834 0.868 9.303-8.925 0.84 0.876-10.172 9.758-19.282-20.099 10.172-9.758 0.84 0.876-9.303 8.924 0.833 0.869 9.303-8.925 0.84 0.876-9.303 8.925 0.84 0.876 9.303-8.925 0.841 0.875-9.303 8.925 3.353 3.496 4.774-4.579 0.833 0.868-4.773 4.58 0.84 0.875 4.773-4.579 0.84 0.876-4.773 4.579 0.84 0.876 4.774-4.58 0.833 0.869zM260.951 188.731l-3.132 7.64-12.333-5.058c0 0 1.044-2.546 3.132-7.639v0c0.506-1.233 1.545-2.047 3.119-2.441 1.571-0.388 3.203-0.235 4.897 0.46v0c1.7 0.697 2.97 1.734 3.81 3.11 0.844 1.385 1.013 2.695 0.507 3.928zM247.065 190.66l10.087 4.136 2.676-6.525c0.377-0.92 0.208-1.914-0.508-2.982-0.713-1.059-1.765-1.874-3.158-2.445v0c-1.399-0.574-2.724-0.733-3.975-0.48-1.253 0.26-2.069 0.85-2.446 1.771v0zM243.911 191.98l14.561 5.97 3.593-8.762c0.634-1.546 0.468-3.17-0.498-4.87-0.974-1.697-2.462-2.955-4.462-3.775v0c-1.319-0.541-2.642-0.786-3.967-0.735-1.334 0.055-2.504 0.382-3.509 0.98-0.999 0.601-1.707 1.411-2.125 2.43v0zM263.187 189.649l-4.053 9.884-16.806-6.891 4.053-9.885c0.498-1.215 1.335-2.19 2.512-2.926 1.173-0.745 2.533-1.162 4.082-1.251 1.54-0.085 3.074 0.185 4.602 0.812v0c1.516 0.621 2.795 1.504 3.838 2.649 1.047 1.153 1.726 2.406 2.038 3.76 0.321 1.35 0.232 2.633-0.266 3.848zM240.745 193.304l19.052 7.813 4.513-11.008c0.584-1.424 0.698-2.918 0.344-4.482-0.352-1.571-1.11-3.018-2.274-4.341-1.161-1.329-2.603-2.347-4.327-3.054v0c-1.712-0.702-3.451-0.989-5.217-0.859-1.763 0.123-3.323 0.623-4.679 1.5-1.354 0.871-2.32 2.013-2.898 3.424v0zM265.433 190.569l-4.97 12.122-21.298-8.733 4.971-12.122c0.664-1.62 1.759-2.934 3.283-3.943 1.525-1.009 3.276-1.592 5.254-1.748 1.98-0.163 3.931 0.15 5.851 0.937 1.921 0.787 3.529 1.934 4.825 3.441 1.299 1.5 2.137 3.145 2.514 4.933 0.377 1.789 0.234 3.493-0.43 5.113zM237.591 194.624l23.525 9.646 5.431-13.244c0.556-1.356 0.785-2.796 0.685-4.32-0.108-1.521-0.494-2.955-1.159-4.303-0.669-1.357-1.621-2.611-2.855-3.762-1.225-1.155-2.632-2.058-4.222-2.709-1.589-0.652-3.222-0.995-4.899-1.031-1.681-0.044-3.239 0.181-4.674 0.674-1.427 0.49-2.712 1.239-3.856 2.247-1.141 1.016-1.989 2.202-2.545 3.558v0zM267.67 191.486v0l-5.892 14.367-25.77-10.567 5.891-14.367c0.83-2.025 2.181-3.675 4.051-4.95 1.867-1.284 4.005-2.042 6.415-2.273 2.41-0.23 4.777 0.131 7.103 1.085v0c1.743 0.715 3.284 1.709 4.626 2.983 1.338 1.265 2.372 2.65 3.102 4.153 0.733 1.498 1.149 3.087 1.248 4.77 0.105 1.684-0.153 3.284-0.774 4.799zM4.02 141.816c0-5.876 4.764-10.64 10.64-10.639 5.876 0 10.64 4.764 10.64 10.639 0 5.876-4.764 10.64-10.64 10.64-5.876 0-10.64-4.764-10.64-10.64zM254.7 141.816c0-5.876 4.764-10.64 10.64-10.639 5.876 0 10.64 4.764 10.64 10.639 0 5.876-4.764 10.64-10.64 10.64-5.876 0-10.64-4.764-10.64-10.64z" fill="#fff" data-fill-palette-color="primary"></path></svg></g></svg></g></svg></g><g></g></svg></g></svg><rect width="280" height="280" fill="none" stroke="none" visibility="hidden"></rect></g></svg></g></svg>